{"title":"Formula.1.2013x16.Japan.Race.SkyF1HD.SD.mp4","uid":9043700,"size":2642035117,"categoryP":"video","categoryS":"tv_shows","magnet":"?xt=urn:btih:d91bdd643369602252bb7a3f04a3f3a1ac7a36c9&amp;dn=Formula.1.2013x16.Japan.Race.SkyF1HD.SD.mp4&amp;tr=udp%3A%2F%2Ftracker.openbittorrent.com%3A80&amp;tr=udp%3A%2F%2Fopen.demonii.com%3A1337&amp;tr=udp%3A%2F%2Ftracker.coppersurfer.tk%3A6969&amp;tr=udp%3A%2F%2Fexodus.desync.com%3A6969","seeders":1,"leechers":0,"uploader":"smcgill1969","files":-1,"time":1381696592,"description":"The 2013 Japanese Grand Prix from the Suzuka Circuit. Also in HD.\n\nGeneral\nComplete name                            : Formula.1.2013x16.Japan.Race.SkyF1HD.SD.mp4\nFormat                                   : MPEG-4\nFormat profile                           : Base Media / Version 2\nCodec ID                                 : mp42\nFile size                                : 2.46 GiB\nDuration                                 : 4h 39mn\nOverall bit rate mode                    : Variable\nOverall bit rate                         : 1 262 Kbps\nEncoded date                             : UTC 2013-10-13 17:13:19\nTagged date                              : UTC 2013-10-13 18:17:17\nWriting application                      : HandBrake 0.9.9 2013052900\n\nVideo\nID                                       : 1\nFormat                                   : AVC\nFormat/Info                              : Advanced Video Codec\nFormat profile                           : &lt;a class=&quot;__cf_email__&quot; href=&quot;/cdn-cgi/l/email-protection&quot; data-cfemail=&quot;743c1d131c3438475a45&quot;&gt;[email&amp;#160;protected]&lt;/a&gt;&lt;script cf-hash='f9e31' type=&quot;text/javascript&quot;&gt;\n/* &lt;![CDATA[ */!function(){try{var t=&quot;currentScript&quot;in document?document.currentScript:function(){for(var t=document.getElementsByTagName(&quot;script&quot;),e=t.length;e--;)if(t[e].getAttribute(&quot;cf-hash&quot;))return t[e]}();if(t&amp;&amp;t.previousSibling){var e,r,n,i,c=t.previousSibling,a=c.getAttribute(&quot;data-cfemail&quot;);if(a){for(e=&quot;&quot;,r=parseInt(a.substr(0,2),16),n=2;a.length-n;n+=2)i=parseInt(a.substr(n,2),16)^r,e+=String.fromCharCode(i);e=document.createTextNode(e),c.parentNode.replaceChild(e,c)}}}catch(u){}}();/* ]]&gt; */&lt;/script&gt;\nFormat settings, CABAC                   : Yes\nFormat settings, ReFrames                : 4 frames\nCodec ID                                 : avc1\nCodec ID/Info                            : Advanced Video Coding\nDuration                                 : 4h 39mn\nBit rate mode                            : Variable\nBit rate                                 : 1 129 Kbps\nWidth                                    : 640 pixels\nHeight                                   : 360 pixels\nDisplay aspect ratio                     : 16:9\nFrame rate mode                          : Constant\nFrame rate                               : 25.000 fps\nColor space                              : YUV\nChroma subsampling                       : 4:2:0\nBit depth                                : 8 bits\nScan type                                : Progressive\nBits/(Pixel*Frame)                       : 0.196\nStream size                              : 2.20 GiB (89%)\nWriting library                          : x264 core 130 r2273 b3065e6\nEncoding settings                        : cabac=1 // deblock=1:0:0 / analyse=0x3:0x113 / me=hex / subme=2 / psy=1 / psy_rd=1.00:0.00 // me_range=16 / chroma_me=1 / trellis=0 / 8x8dct=1 / cqm=0 / deadzone=21,11 / fast_pskip=1 / chroma_qp_offset=0 / threads=12 / lookahead_threads=2 / sliced_threads=0 / nr=0 / decimate=1 / interlaced=0 / bluray_compat=0 / constrained_intra=0 / bframes=3 / b_pyramid=2 / b_adapt=1 / b_bias=0 / direct=1 / weightb=1 / open_gop=0 / weightp=1 / keyint=250 / keyint_min=25 / scenecut=40 / intra_refresh=0 / rc_lookahead=10 / rc=crf / mbtree=1 / crf=20.0 / qcomp=0.60 / qpmin=0 / qpmax=69 / qpstep=4 / vbv_maxrate=17500 / vbv_bufsize=17500 / crf_max=0.0 / nal_hrd=none / ip_ratio=1.40 / aq=1:1.00\nEncoded date                             : UTC 2013-10-13 17:13:19\nTagged date                              : UTC 2013-10-13 18:17:17\nColor primaries                          : BT.709\nTransfer characteristics                 : BT.709\nMatrix coefficients                      : BT.709\n\nAudio\nID                                       : 2\nFormat                                   : AAC\nFormat/Info                              : Advanced Audio Codec\nFormat profile                           : LC\nCodec ID                                 : 40\nDuration                                 : 4h 39mn\nBit rate mode                            : Variable\nBit rate                                 : 128 Kbps\nMaximum bit rate                         : 294 Kbps\nChannel(s)                               : 2 channels\nChannel positions                        : Front: L R\nSampling rate                            : 44.1 KHz\nCompression mode                         : Lossy\nDelay relative to video                  : 80ms\nStream size                              : 256 MiB (10%)\nEncoded date                             : UTC 2013-10-13 17:13:19\nTagged date                              : UTC 2013-10-13 18:17:15\n\n","torrent":{"xt":"urn:btih:d91bdd643369602252bb7a3f04a3f3a1ac7a36c9","amp;dn":"Formula.1.2013x16.Japan.Race.SkyF1HD.SD.mp4","amp;tr":["udp%3A%2F%2Ftracker.openbittorrent.com%3A80","udp%3A%2F%2Fopen.demonii.com%3A1337","udp%3A%2F%2Ftracker.coppersurfer.tk%3A6969","udp%3A%2F%2Fexodus.desync.com%3A6969"],"infoHash":"d91bdd643369602252bb7a3f04a3f3a1ac7a36c9","infoHashBuffer":{"type":"Buffer","data":[217,27,221,100,51,105,96,34,82,187,122,63,4,163,243,161,172,122,54,201]},"announce":[],"urlList":[]}}